<?xml version="1.0" standalone="no"?>
<!DOCTYPE svg PUBLIC "-//W3C//DTD SVG 20010904//EN"
 "http://www.w3.org/TR/2001/REC-SVG-20010904/DTD/svg10.dtd">
<svg version="1.0" xmlns="http://www.w3.org/2000/svg"
 width="301.000000pt" height="238.000000pt" viewBox="0 0 301.000000 238.000000"
 preserveAspectRatio="xMidYMid meet">

<g transform="translate(0.000000,238.000000) scale(0.100000,-0.100000)"
fill="#000000" stroke="none">
<path d="M930 2271 c-63 -105 -82 -165 -83 -251 0 -59 5 -84 22 -118 12 -24
20 -46 18 -48 -8 -8 -59 59 -78 101 l-19 40 0 -214 0 -214 43 -41 c113 -109
295 -96 420 28 45 45 47 50 47 103 l0 54 -26 -20 c-40 -31 -80 -27 -120 13
-50 50 -47 90 16 210 77 145 76 195 -5 285 -40 44 -65 55 -41 19 39 -59 25
-169 -25 -197 -22 -12 -31 -12 -57 -2 -48 20 -67 81 -67 214 0 59 -1 107 -2
107 -1 0 -21 -31 -43 -69z"/>
<path d="M873 1383 l-83 -4 0 -92 c0 -59 4 -97 12 -105 9 -9 79 -12 255 -12
l243 0 0 103 0 104 -107 6 c-103 7 -146 7 -320 0z"/>
<path d="M1590 1181 c0 -5 -14 -73 -30 -152 -17 -79 -39 -186 -50 -237 -41
-197 -56 -222 -135 -222 -62 0 -85 24 -85 90 l0 51 -37 -7 c-21 -4 -42 -12
-46 -18 -14 -19 -1 -106 20 -134 68 -94 251 -79 310 24 27 47 35 73 68 230 13
65 36 173 50 239 14 65 25 125 25 132 0 9 -15 13 -45 13 -25 0 -45 -4 -45 -9z"/>
<path d="M842 1113 c27 -63 25 -63 213 -63 189 0 198 3 223 63 l12 27 -230 0
-230 0 12 -27z"/>
<path d="M920 928 c25 -88 28 -113 42 -448 9 -195 15 -373 15 -396 0 -70 14
-84 84 -84 56 0 60 2 71 28 6 15 11 47 11 72 0 25 7 200 15 390 14 325 16 350
42 438 l28 92 -168 0 -168 0 28 -92z"/>
<path d="M1765 823 c-69 -17 -127 -104 -128 -192 0 -75 23 -117 76 -142 51
-23 77 -24 125 -4 75 32 121 102 122 185 0 111 -86 179 -195 153z m108 -54
c73 -57 44 -199 -50 -248 -30 -15 -60 -14 -93 6 -102 60 -36 263 86 263 17 0
43 -9 57 -21z"/>
<path d="M2022 662 c-17 -86 -32 -163 -32 -170 0 -19 38 -14 44 6 3 9 10 45
17 80 l12 62 88 0 c49 0 89 -3 89 -7 -1 -5 -7 -37 -15 -73 -18 -84 -19 -82 7
-78 20 3 25 18 54 153 39 180 40 185 14 185 -14 0 -22 -11 -29 -37 -6 -21 -11
-46 -11 -55 0 -44 -9 -48 -97 -48 l-86 0 6 48 c4 26 9 57 13 70 5 18 2 22 -18
22 -22 0 -25 -7 -56 -158z"/>
<path d="M2421 718 c51 -102 51 -102 40 -157 -15 -73 -14 -81 8 -81 22 0 27
10 36 75 6 38 23 67 86 150 44 57 79 107 79 110 0 3 -11 5 -24 5 -17 0 -38
-19 -82 -75 -32 -41 -62 -75 -65 -75 -4 0 -24 34 -45 75 -31 61 -42 75 -61 75
-22 0 -21 -4 28 -102z"/>
<path d="M2585 408 c-4 -18 -9 -41 -11 -50 -3 -10 -1 -18 4 -18 5 0 9 6 9 13
0 6 3 29 7 50 4 20 5 37 2 37 -2 0 -7 -15 -11 -32z"/>
<path d="M1207 390 c3 -25 6 -45 7 -46 1 -1 11 20 24 45 19 39 20 42 3 21
l-20 -25 -10 25 c-8 20 -9 17 -4 -20z"/>
<path d="M1507 413 c-3 -10 -8 -31 -11 -48 -5 -27 -4 -28 6 -8 6 12 20 23 32
25 29 4 29 42 -1 46 -14 2 -23 -3 -26 -15z m43 -8 c0 -8 -9 -15 -20 -15 -20 0
-26 11 -13 23 12 13 33 7 33 -8z"/>
<path d="M2061 416 c-7 -8 -11 -27 -9 -43 2 -22 9 -29 29 -31 32 -4 51 18 47
55 -2 22 -9 29 -29 31 -14 2 -31 -4 -38 -12z m57 -28 c-2 -28 -8 -34 -30 -36
-25 -3 -28 0 -28 26 0 35 6 42 37 42 21 0 24 -4 21 -32z"/>
<path d="M2317 413 c-19 -67 -18 -73 5 -72 15 1 17 3 7 6 -14 3 -15 11 -8 41
8 37 5 58 -4 25z"/>
<path d="M1887 413 c-13 -23 -16 -62 -5 -69 6 -4 8 -3 4 4 -3 6 -1 23 4 38 10
25 8 45 -3 27z"/>
<path d="M1300 395 c15 -18 6 -45 -16 -45 -12 0 -15 6 -10 28 5 26 5 26 -6 4
-15 -30 4 -52 30 -36 23 15 27 50 6 58 -14 5 -15 4 -4 -9z"/>
<path d="M1337 378 c-7 -25 -1 -38 16 -37 8 0 8 2 1 5 -6 3 -9 16 -6 29 5 31
-4 33 -11 3z"/>
<path d="M1381 388 c0 -9 -4 -25 -7 -35 -5 -14 -4 -15 5 -7 7 7 11 22 8 35 -2
13 -5 16 -6 7z"/>
<path d="M1417 393 c-4 -3 -7 -18 -6 -32 1 -26 1 -25 10 3 9 31 7 41 -4 29z"/>
<path d="M1577 393 c-4 -3 -7 -18 -6 -32 1 -26 1 -25 10 3 9 31 7 41 -4 29z"/>
<path d="M1622 383 c-13 -24 -4 -43 18 -43 24 0 42 31 29 51 -6 10 -9 7 -9
-13 0 -19 -5 -28 -16 -28 -12 0 -15 7 -12 25 6 29 2 32 -10 8z"/>
<path d="M1686 359 c-4 -23 -4 -44 -1 -47 3 -3 5 2 5 11 0 9 10 17 22 19 13 2
23 11 24 21 1 12 1 13 -3 2 -2 -8 -11 -15 -20 -15 -11 0 -14 6 -9 25 4 14 2
25 -3 25 -4 0 -11 -19 -15 -41z"/>
<path d="M1764 385 c-9 -22 3 -45 23 -44 16 0 16 1 2 7 -9 4 -15 17 -14 30 2
25 -3 29 -11 7z"/>
<path d="M1801 384 c0 -11 3 -14 6 -6 3 7 2 16 -1 19 -3 4 -6 -2 -5 -13z"/>
<path d="M1827 373 c-7 -39 -1 -40 11 -4 6 17 7 31 3 31 -5 0 -11 -12 -14 -27z"/>
<path d="M1923 363 c1 -24 3 -43 4 -43 3 0 43 72 43 78 0 3 -8 -5 -17 -18
l-17 -24 -7 24 c-6 19 -7 14 -6 -17z"/>
<path d="M2147 380 c-3 -13 -2 -29 3 -34 14 -14 17 -5 10 29 -6 30 -6 30 -13
5z"/>
<path d="M2227 393 c-4 -3 -7 -18 -6 -32 1 -26 1 -25 10 3 9 31 7 41 -4 29z"/>
<path d="M2370 385 c-16 -19 -6 -45 17 -44 16 1 16 2 1 6 -14 3 -15 9 -8 29
11 28 8 30 -10 9z"/>
<path d="M2403 385 c0 -8 4 -12 9 -9 4 3 8 9 8 15 0 5 -4 9 -8 9 -5 0 -9 -7
-9 -15z"/>
<path d="M2437 393 c-9 -9 -9 -53 1 -53 4 0 7 14 7 30 0 17 0 30 -1 30 0 0 -4
-3 -7 -7z"/>
<path d="M2473 388 c-1 -7 -6 -29 -12 -48 -9 -32 -9 -33 4 -16 8 11 15 25 15
32 0 7 3 19 6 28 3 9 2 16 -3 16 -5 0 -10 -6 -10 -12z"/>
<path d="M2543 370 c-6 -17 -8 -30 -3 -30 8 0 24 50 18 56 -2 2 -9 -10 -15
-26z"/>
<path d="M2191 383 c0 -6 -4 -20 -7 -30 -5 -14 -4 -15 5 -7 7 7 11 20 8 30 -3
11 -5 14 -6 7z"/>
<path d="M2503 374 c-3 -8 -2 -19 3 -24 5 -5 9 1 9 16 0 28 -3 30 -12 8z"/>
<path d="M1975 339 c-4 -6 -5 -12 -2 -15 2 -3 7 2 10 11 7 17 1 20 -8 4z"/>
<path d="M1206 252 c-2 -4 -7 -25 -10 -47 -3 -22 -3 -32 0 -22 3 9 9 17 13 17
5 0 6 12 3 26 -4 21 -1 25 14 22 12 -2 18 -11 16 -22 -2 -11 1 -15 7 -11 16 9
13 32 -5 39 -21 8 -32 8 -38 -2z"/>
<path d="M1268 200 c-5 -33 6 -28 17 8 3 12 2 22 -3 22 -5 0 -12 -14 -14 -30z"/>
<path d="M1322 218 c-17 -17 -15 -33 6 -49 15 -12 16 -12 6 1 -16 22 -11 44
10 48 13 3 16 0 11 -9 -5 -8 -4 -10 4 -5 13 9 5 26 -13 26 -6 0 -17 -5 -24
-12z"/>
<path d="M1384 216 c-3 -8 -4 -23 -1 -33 3 -12 5 -9 6 9 1 16 8 28 19 31 16 4
16 5 -1 6 -10 0 -20 -5 -23 -13z"/>
<path d="M1442 200 c0 -19 2 -27 5 -17 2 9 2 25 0 35 -3 9 -5 1 -5 -18z"/>
<path d="M1476 221 c-3 -5 1 -14 9 -21 8 -7 12 -17 8 -23 -4 -6 -1 -7 6 -3 9
6 8 12 -4 26 -15 17 -15 19 2 23 15 4 16 5 1 6 -9 0 -19 -3 -22 -8z"/>
<path d="M1530 216 c0 -8 -3 -21 -6 -30 -3 -9 -2 -16 3 -16 5 0 10 14 11 30 1
17 0 30 -3 30 -3 0 -5 -6 -5 -14z"/>
<path d="M1561 212 c-6 -11 -6 -24 0 -33 6 -10 9 -7 9 14 0 18 5 27 16 27 12
0 15 -7 11 -27 -5 -25 -4 -26 8 -9 8 10 11 24 8 32 -7 20 -40 17 -52 -4z"/>
<path d="M1636 215 c-3 -9 -6 -24 -5 -33 0 -9 5 -4 10 12 9 32 6 48 -5 21z"/>
<path d="M1673 197 c-1 -30 -1 -31 9 -9 7 14 8 26 2 32 -5 5 -10 -4 -11 -23z"/>
</g>
</svg>
